<?xml version="1.0" encoding="utf-8"?>
<!-- Generator: Adobe Illustrator 18.0.0, SVG Export Plug-In . SVG Version: 6.00 Build 0)  -->
<!DOCTYPE svg PUBLIC "-//W3C//DTD SVG 1.1//EN" "http://www.w3.org/Graphics/SVG/1.1/DTD/svg11.dtd">
<svg version="1.1" id="Capa_1" xmlns="http://www.w3.org/2000/svg" xmlns:xlink="http://www.w3.org/1999/xlink" x="0px" y="0px"
	 viewBox="0 0 170.1 170.1" enable-background="new 0 0 170.1 170.1" xml:space="preserve">
<path fill="#F9F8FB" d="M137.2,105.2h-97c-6.6,0-12-5.4-12-12V38.3c0-6.6,5.4-12,12-12h97c6.6,0,12,5.4,12,12v54.9
	C149.2,99.8,143.8,105.2,137.2,105.2z"/>
<g>
	<g>
		<g>
			<polygon fill="#971F20" points="44.9,33.4 31.5,97.3 50.4,97.3 63.7,33.4 			"/>
			<path fill="#971F20" d="M102.7,33.7c11,4.5,17.2,19.6,14.1,36C114,84.3,104.5,95.3,94,97.5c8.6,0.2,26,0.1,26,0.1l9.9-47.4h13
				l3.4-16.5H102.7z"/>
			<path fill="#971F20" d="M110.8,44.5c-1.3-2.1-2.8-4-4.6-5.6c-1.8-1.6-3.8-2.8-6.1-3.7c-2.1-0.8-4.6-1.4-7.2-1.7
				c-0.8-0.1-2.7-0.2-8.6-0.2H66.2L52.8,97.3h24.4c5.4,0,9.3-0.3,12-0.9c4.8-1.2,8.8-3,11.9-5.5c3.9-3.1,7.2-7.3,9.8-12.5
				c2.6-5.2,3.9-11.2,3.9-17.9c0-3.1-0.3-6-1-8.7C113.1,49.1,112.1,46.6,110.8,44.5z M96,60.2c0,4.2-0.7,7.9-2.1,10.9
				c-1.4,3-3.1,5.5-5,7.2c-1.2,1.1-2.5,1.8-3.9,2.2c-1.1,0.3-3.5,0.7-8.4,0.7H75l6.5-31.4h4c4.1,0,5.6,0.4,6,0.5
				c1.2,0.4,2.2,1.3,3.1,2.7C95.2,53.9,96,56,96,60.2z"/>
		</g>
		<g opacity="0.8">
			<path fill="#971F20" d="M117.3,66c3.3-0.4,6.4-0.8,9.5-1.3l3-14.5h13l3.4-16.5h-43.6C112.9,37.8,119,51.1,117.3,66z"/>
			<path fill="#971F20" d="M81.6,49.8h4c4.1,0,5.6,0.4,6,0.5c1.2,0.4,2.2,1.3,3.1,2.7c0.6,1,1.4,3.1,1.4,7.2c0,2.7-0.3,5.2-0.9,7.5
				c6.6-0.2,13.1-0.7,19.3-1.3c0.2-1.9,0.4-3.8,0.4-5.8c0-3.1-0.3-6-1-8.7c-0.7-2.7-1.7-5.2-2.9-7.3c-1.3-2.1-2.8-4-4.6-5.6
				c-1.8-1.6-3.8-2.8-6.1-3.7c-2.1-0.8-4.6-1.4-7.2-1.7c-0.8-0.1-2.7-0.2-8.6-0.2H66.2l-7,33.4c6,0.5,12.2,0.8,18.6,1L81.6,49.8z"/>
			<path fill="#971F20" d="M56.8,66.6l6.9-33.2H44.9l-6.5,30.8C44.2,65.2,50.4,66,56.8,66.6z"/>
		</g>
		<g>
			<g>
				<path fill="#971F20" d="M51.4,97.9H31.1l13.7-65.3H65L51.4,97.9z M32.8,96.5h17.4l13-62.5H45.9L32.8,96.5z"/>
			</g>
			<g>
				<path fill="#971F20" d="M112.2,98.2c-5.5,0-13,0-17.8-0.1l-6.3-0.1l6.2-1.3c10.4-2.1,19.6-13.3,22.3-27.3
					c3-15.7-2.9-30.8-13.7-35.2l-3.3-1.3h48.1l-3.7,17.9h-13L121,98.1l-0.6,0C120.4,98.1,116.9,98.2,112.2,98.2z M98.8,96.7
					c4.3,0,9.4,0.1,13.4,0.1c3.6,0,6.5,0,7.6,0l9.9-47.4h13l3.1-15.1h-39.8c9.7,5.9,14.7,20.4,11.9,35.4
					C115.5,82.5,108,92.8,98.8,96.7z"/>
			</g>
			<g>
				<path fill="#971F20" d="M77.6,97.9H52.4L66,32.6h18.7c5.9,0,7.8,0.1,8.6,0.2c2.7,0.3,5.2,0.8,7.4,1.7c2.3,0.9,4.4,2.2,6.3,3.8
					c1.8,1.6,3.5,3.5,4.8,5.7c1.3,2.2,2.3,4.7,3,7.5c0.7,2.7,1,5.7,1,8.9c0,6.8-1.3,12.9-3.9,18.2c-2.6,5.3-6,9.6-10,12.8
					c-3.2,2.5-7.3,4.4-12.1,5.6C87,97.5,83,97.9,77.6,97.9z M54.1,96.5h23.5c5.3,0,9.2-0.3,11.9-0.9c4.7-1.1,8.6-2.9,11.6-5.3
					c3.9-3,7.1-7.2,9.6-12.3c2.5-5.1,3.8-11,3.8-17.6c0-3.1-0.3-5.9-1-8.5c-0.7-2.7-1.6-5-2.9-7.1c-1.2-2.1-2.8-3.9-4.5-5.4
					c-1.7-1.5-3.7-2.7-5.9-3.5c-2.1-0.8-4.4-1.4-7-1.6c-0.8-0.1-2.6-0.2-8.5-0.2H67.2L54.1,96.5z M77.1,81.7h-2.5L81.4,49h4.5
					c4.1,0,5.7,0.3,6.3,0.5c1.3,0.5,2.4,1.4,3.4,2.9c0.7,1.1,1.5,3.3,1.5,7.6c0,4.3-0.7,8.1-2.1,11.2c-1.4,3.1-3.1,5.6-5.1,7.5
					c-1.3,1.2-2.7,1.9-4.2,2.3C84.5,81.3,82.1,81.7,77.1,81.7z M76.3,80.3h0.8c4.9,0,7.1-0.4,8.2-0.6c1.3-0.4,2.5-1,3.6-2
					c1.9-1.7,3.5-4,4.8-7c1.3-2.9,2-6.5,2-10.6c0-4-0.7-5.9-1.3-6.8c-0.8-1.2-1.7-2-2.7-2.4c-0.3-0.1-1.7-0.5-5.8-0.5h-3.4
					L76.3,80.3z"/>
			</g>
		</g>
	</g>
</g>
</svg>
